<svg width="163" height="53" viewBox="0 0 163 53" fill="none" xmlns="http://www.w3.org/2000/svg">
<path d="M25.232 21.28C26.192 21.28 27.0347 21.4453 27.76 21.776C28.4853 22.1067 29.104 22.5973 29.616 23.248L28.384 24.672C27.9467 24.1173 27.4667 23.712 26.944 23.456C26.432 23.1893 25.8347 23.056 25.152 23.056C24.704 23.056 24.3307 23.1147 24.032 23.232C23.744 23.3493 23.5307 23.504 23.392 23.696C23.264 23.888 23.2 24.1013 23.2 24.336C23.2 24.624 23.312 24.8693 23.536 25.072C23.76 25.264 24.144 25.424 24.688 25.552L26.656 26C27.7013 26.2347 28.448 26.5867 28.896 27.056C29.3547 27.5147 29.584 28.112 29.584 28.848C29.584 29.5413 29.4027 30.1387 29.04 30.64C28.6773 31.1307 28.1707 31.5093 27.52 31.776C26.8693 32.032 26.1227 32.16 25.28 32.16C24.544 32.16 23.8667 32.0747 23.248 31.904C22.64 31.7227 22.096 31.4773 21.616 31.168C21.136 30.8587 20.736 30.5013 20.416 30.096L21.664 28.608C21.9093 28.9493 22.2133 29.2533 22.576 29.52C22.9387 29.7867 23.3493 30 23.808 30.16C24.2773 30.3093 24.768 30.384 25.28 30.384C25.7173 30.384 26.0853 30.336 26.384 30.24C26.6933 30.1333 26.9227 29.9893 27.072 29.808C27.232 29.616 27.312 29.3867 27.312 29.12C27.312 28.8427 27.216 28.608 27.024 28.416C26.8427 28.2133 26.5013 28.0587 26 27.952L23.856 27.472C23.2373 27.3227 22.704 27.1307 22.256 26.896C21.8187 26.6507 21.4827 26.3413 21.248 25.968C21.024 25.584 20.912 25.1307 20.912 24.608C20.912 23.9787 21.0827 23.4133 21.424 22.912C21.7653 22.4107 22.256 22.016 22.896 21.728C23.5467 21.4293 24.3253 21.28 25.232 21.28ZM43.1609 21.44V32H41.1609V26.496L41.2729 23.408H41.2409L38.3129 32H36.5049L33.5929 23.408H33.5609L33.6729 26.496V32H31.6729V21.44H34.8729L36.7769 27.2L37.4489 29.584H37.4809L38.1689 27.216L40.0569 21.44H43.1609ZM54.9793 21.44V32H52.4513L48.7552 25.792L47.8433 24.064H47.8273L47.8913 25.888V32H45.9073V21.44H48.4193L52.1153 27.632L53.0273 29.376H53.0593L52.9953 27.552V21.44H54.9793ZM67.058 21.44C67.8687 21.44 68.562 21.5787 69.138 21.856C69.714 22.1227 70.1567 22.512 70.466 23.024C70.786 23.5253 70.946 24.1333 70.946 24.848C70.946 25.5627 70.786 26.176 70.466 26.688C70.1567 27.1893 69.714 27.5787 69.138 27.856C68.562 28.1227 67.8687 28.256 67.058 28.256H64.834V32H62.626V21.44H67.058ZM66.722 26.512C67.3833 26.512 67.8793 26.3733 68.21 26.096C68.5407 25.808 68.706 25.392 68.706 24.848C68.706 24.2933 68.5407 23.8773 68.21 23.6C67.8793 23.3227 67.3833 23.184 66.722 23.184H64.834V26.512H66.722ZM77.6258 21.44C78.8204 21.44 79.7591 21.728 80.4418 22.304C81.1244 22.88 81.4658 23.6533 81.4658 24.624C81.4658 25.6587 81.1244 26.4533 80.4418 27.008C79.7591 27.552 78.8258 27.824 77.6418 27.824L77.4178 27.952H75.1458V32H72.9698V21.44H77.6258ZM77.3698 26.272C77.9884 26.272 78.4471 26.1493 78.7458 25.904C79.0551 25.648 79.2098 25.2587 79.2098 24.736C79.2098 24.2133 79.0551 23.8293 78.7458 23.584C78.4471 23.328 77.9884 23.2 77.3698 23.2H75.1458V26.272H77.3698ZM78.6658 26.736L82.0898 32H79.6098L76.7778 27.376L78.6658 26.736ZM88.311 21.28C89.3563 21.28 90.2577 21.4987 91.015 21.936C91.7723 22.3733 92.3537 22.9973 92.759 23.808C93.175 24.6187 93.383 25.5893 93.383 26.72C93.383 27.8507 93.175 28.8213 92.759 29.632C92.3537 30.4427 91.7723 31.0667 91.015 31.504C90.2577 31.9413 89.3563 32.16 88.311 32.16C87.2657 32.16 86.359 31.9413 85.591 31.504C84.8337 31.0667 84.247 30.4427 83.831 29.632C83.4257 28.8213 83.223 27.8507 83.223 26.72C83.223 25.5893 83.4257 24.6187 83.831 23.808C84.247 22.9973 84.8337 22.3733 85.591 21.936C86.359 21.4987 87.2657 21.28 88.311 21.28ZM88.311 23.088C87.7137 23.088 87.207 23.2267 86.791 23.504C86.375 23.7813 86.055 24.192 85.831 24.736C85.6177 25.2693 85.511 25.9307 85.511 26.72C85.511 27.4987 85.6177 28.16 85.831 28.704C86.055 29.248 86.375 29.6587 86.791 29.936C87.207 30.2133 87.7137 30.352 88.311 30.352C88.8977 30.352 89.399 30.2133 89.815 29.936C90.231 29.6587 90.5457 29.248 90.759 28.704C90.983 28.16 91.095 27.4987 91.095 26.72C91.095 25.9307 90.983 25.2693 90.759 24.736C90.5457 24.192 90.231 23.7813 89.815 23.504C89.399 23.2267 88.8977 23.088 88.311 23.088ZM100.042 21.44C100.853 21.44 101.546 21.5787 102.122 21.856C102.698 22.1227 103.141 22.512 103.45 23.024C103.77 23.5253 103.93 24.1333 103.93 24.848C103.93 25.5627 103.77 26.176 103.45 26.688C103.141 27.1893 102.698 27.5787 102.122 27.856C101.546 28.1227 100.853 28.256 100.042 28.256H97.8184V32H95.6104V21.44H100.042ZM99.7064 26.512C100.368 26.512 100.864 26.3733 101.194 26.096C101.525 25.808 101.69 25.392 101.69 24.848C101.69 24.2933 101.525 23.8773 101.194 23.6C100.864 23.3227 100.368 23.184 99.7064 23.184H97.8184V26.512H99.7064ZM105.954 32V21.44H113.874V23.216H108.162V25.84H112.658V27.536H108.162V30.224H114.098V32H105.954ZM120.735 21.44C121.93 21.44 122.868 21.728 123.551 22.304C124.234 22.88 124.575 23.6533 124.575 24.624C124.575 25.6587 124.234 26.4533 123.551 27.008C122.868 27.552 121.935 27.824 120.751 27.824L120.527 27.952H118.255V32H116.079V21.44H120.735ZM120.479 26.272C121.098 26.272 121.556 26.1493 121.855 25.904C122.164 25.648 122.319 25.2587 122.319 24.736C122.319 24.2133 122.164 23.8293 121.855 23.584C121.556 23.328 121.098 23.2 120.479 23.2H118.255V26.272H120.479ZM121.775 26.736L125.199 32H122.719L119.887 27.376L121.775 26.736ZM135.119 21.44V23.216H131.583V32H129.375V23.216H125.823V21.44H135.119ZM139.131 21.44V32H136.923V21.44H139.131ZM141.876 32V21.44H149.796V23.216H144.084V25.84H148.58V27.536H144.084V30.224H150.02V32H141.876ZM155.857 21.28C156.817 21.28 157.66 21.4453 158.385 21.776C159.11 22.1067 159.729 22.5973 160.241 23.248L159.009 24.672C158.572 24.1173 158.092 23.712 157.569 23.456C157.057 23.1893 156.46 23.056 155.777 23.056C155.329 23.056 154.956 23.1147 154.657 23.232C154.369 23.3493 154.156 23.504 154.017 23.696C153.889 23.888 153.825 24.1013 153.825 24.336C153.825 24.624 153.937 24.8693 154.161 25.072C154.385 25.264 154.769 25.424 155.313 25.552L157.281 26C158.326 26.2347 159.073 26.5867 159.521 27.056C159.98 27.5147 160.209 28.112 160.209 28.848C160.209 29.5413 160.028 30.1387 159.665 30.64C159.302 31.1307 158.796 31.5093 158.145 31.776C157.494 32.032 156.748 32.16 155.905 32.16C155.169 32.16 154.492 32.0747 153.873 31.904C153.265 31.7227 152.721 31.4773 152.241 31.168C151.761 30.8587 151.361 30.5013 151.041 30.096L152.289 28.608C152.534 28.9493 152.838 29.2533 153.201 29.52C153.564 29.7867 153.974 30 154.433 30.16C154.902 30.3093 155.393 30.384 155.905 30.384C156.342 30.384 156.71 30.336 157.009 30.24C157.318 30.1333 157.548 29.9893 157.697 29.808C157.857 29.616 157.937 29.3867 157.937 29.12C157.937 28.8427 157.841 28.608 157.649 28.416C157.468 28.2133 157.126 28.0587 156.625 27.952L154.481 27.472C153.862 27.3227 153.329 27.1307 152.881 26.896C152.444 26.6507 152.108 26.3413 151.873 25.968C151.649 25.584 151.537 25.1307 151.537 24.608C151.537 23.9787 151.708 23.4133 152.049 22.912C152.39 22.4107 152.881 22.016 153.521 21.728C154.172 21.4293 154.95 21.28 155.857 21.28Z" fill="#212738"/>
<path d="M17.0323 23.3336C17.0323 22.2592 16.687 21.2098 16.0414 20.323C15.3959 19.4361 14.4802 18.753 13.4144 18.3633C12.3486 17.9735 11.1823 17.8953 10.0684 18.1387C8.9544 18.3822 7.9447 18.936 7.17147 19.7277H0V33.9463H15.1417V27.3012C15.736 26.8019 16.2116 26.1904 16.5373 25.5068C16.8631 24.8231 17.0317 24.0826 17.0323 23.3336ZM14.1188 23.3336C14.12 23.8484 13.9585 24.352 13.6549 24.7806C13.3512 25.2092 12.9191 25.5435 12.413 25.7413C11.907 25.939 11.35 25.9914 10.8123 25.8915C10.2746 25.7918 9.78056 25.5444 9.39262 25.1807C9.00468 24.8171 8.74035 24.3535 8.63301 23.8486C8.52566 23.3437 8.5802 22.8203 8.78965 22.3446C8.99911 21.8688 9.35412 21.4621 9.80969 21.176C10.2653 20.8898 10.8011 20.7371 11.3491 20.7371C12.0827 20.7371 12.7863 21.0105 13.3056 21.4973C13.8249 21.9841 14.1174 22.6445 14.1188 23.3336ZM12.2283 31.2094H2.91341V22.4645H5.75211C5.69729 22.7514 5.66845 23.0422 5.66592 23.3336C5.66747 24.7491 6.2667 26.1062 7.3322 27.1071C8.39763 28.108 9.84227 28.6709 11.3491 28.6723C11.6437 28.6709 11.9377 28.6474 12.2283 28.6022V31.2094Z" fill="#212738"/>
</svg>
