<svg width="287" height="53" viewBox="0 0 287 53" fill="none" xmlns="http://www.w3.org/2000/svg">
<path d="M22.8223 21.28C23.7823 21.28 24.625 21.4453 25.3503 21.776C26.0757 22.1067 26.6943 22.5973 27.2063 23.248L25.9743 24.672C25.537 24.1173 25.057 23.712 24.5343 23.456C24.0223 23.1893 23.425 23.056 22.7423 23.056C22.2943 23.056 21.921 23.1147 21.6223 23.232C21.3343 23.3493 21.121 23.504 20.9823 23.696C20.8543 23.888 20.7903 24.1013 20.7903 24.336C20.7903 24.624 20.9023 24.8693 21.1263 25.072C21.3503 25.264 21.7343 25.424 22.2783 25.552L24.2463 26C25.2917 26.2347 26.0383 26.5867 26.4863 27.056C26.945 27.5147 27.1743 28.112 27.1743 28.848C27.1743 29.5413 26.993 30.1387 26.6303 30.64C26.2677 31.1307 25.761 31.5093 25.1103 31.776C24.4597 32.032 23.713 32.16 22.8703 32.16C22.1343 32.16 21.457 32.0747 20.8383 31.904C20.2303 31.7227 19.6863 31.4773 19.2063 31.168C18.7263 30.8587 18.3263 30.5013 18.0063 30.096L19.2543 28.608C19.4997 28.9493 19.8037 29.2533 20.1663 29.52C20.529 29.7867 20.9397 30 21.3983 30.16C21.8677 30.3093 22.3583 30.384 22.8703 30.384C23.3077 30.384 23.6757 30.336 23.9743 30.24C24.2837 30.1333 24.513 29.9893 24.6623 29.808C24.8223 29.616 24.9023 29.3867 24.9023 29.12C24.9023 28.8427 24.8063 28.608 24.6143 28.416C24.433 28.2133 24.0917 28.0587 23.5903 27.952L21.4463 27.472C20.8277 27.3227 20.2943 27.1307 19.8463 26.896C19.409 26.6507 19.073 26.3413 18.8383 25.968C18.6143 25.584 18.5023 25.1307 18.5023 24.608C18.5023 23.9787 18.673 23.4133 19.0143 22.912C19.3557 22.4107 19.8463 22.016 20.4863 21.728C21.137 21.4293 21.9157 21.28 22.8223 21.28ZM40.7512 21.44V32H38.7512V26.496L38.8632 23.408H38.8312L35.9032 32H34.0952L31.1832 23.408H31.1512L31.2632 26.496V32H29.2632V21.44H32.4632L34.3672 27.2L35.0392 29.584H35.0712L35.7592 27.216L37.6472 21.44H40.7512ZM52.5696 21.44V32H50.0416L46.3456 25.792L45.4336 24.064H45.4176L45.4816 25.888V32H43.4976V21.44H46.0096L49.7056 27.632L50.6176 29.376H50.6496L50.5856 27.552V21.44H52.5696ZM64.6483 21.44C65.459 21.44 66.1523 21.5787 66.7283 21.856C67.3043 22.1227 67.747 22.512 68.0563 23.024C68.3763 23.5253 68.5363 24.1333 68.5363 24.848C68.5363 25.5627 68.3763 26.176 68.0563 26.688C67.747 27.1893 67.3043 27.5787 66.7283 27.856C66.1523 28.1227 65.459 28.256 64.6483 28.256H62.4243V32H60.2163V21.44H64.6483ZM64.3123 26.512C64.9737 26.512 65.4697 26.3733 65.8003 26.096C66.131 25.808 66.2963 25.392 66.2963 24.848C66.2963 24.2933 66.131 23.8773 65.8003 23.6C65.4697 23.3227 64.9737 23.184 64.3123 23.184H62.4243V26.512H64.3123ZM75.2161 21.44C76.4107 21.44 77.3494 21.728 78.0321 22.304C78.7147 22.88 79.0561 23.6533 79.0561 24.624C79.0561 25.6587 78.7147 26.4533 78.0321 27.008C77.3494 27.552 76.4161 27.824 75.2321 27.824L75.0081 27.952H72.7361V32H70.5601V21.44H75.2161ZM74.9601 26.272C75.5787 26.272 76.0374 26.1493 76.3361 25.904C76.6454 25.648 76.8001 25.2587 76.8001 24.736C76.8001 24.2133 76.6454 23.8293 76.3361 23.584C76.0374 23.328 75.5787 23.2 74.9601 23.2H72.7361V26.272H74.9601ZM76.2561 26.736L79.6801 32H77.2001L74.3681 27.376L76.2561 26.736ZM85.9013 21.28C86.9467 21.28 87.848 21.4987 88.6053 21.936C89.3627 22.3733 89.944 22.9973 90.3493 23.808C90.7653 24.6187 90.9733 25.5893 90.9733 26.72C90.9733 27.8507 90.7653 28.8213 90.3493 29.632C89.944 30.4427 89.3627 31.0667 88.6053 31.504C87.848 31.9413 86.9467 32.16 85.9013 32.16C84.856 32.16 83.9493 31.9413 83.1813 31.504C82.424 31.0667 81.8373 30.4427 81.4213 29.632C81.016 28.8213 80.8133 27.8507 80.8133 26.72C80.8133 25.5893 81.016 24.6187 81.4213 23.808C81.8373 22.9973 82.424 22.3733 83.1813 21.936C83.9493 21.4987 84.856 21.28 85.9013 21.28ZM85.9013 23.088C85.304 23.088 84.7973 23.2267 84.3813 23.504C83.9653 23.7813 83.6453 24.192 83.4213 24.736C83.208 25.2693 83.1013 25.9307 83.1013 26.72C83.1013 27.4987 83.208 28.16 83.4213 28.704C83.6453 29.248 83.9653 29.6587 84.3813 29.936C84.7973 30.2133 85.304 30.352 85.9013 30.352C86.488 30.352 86.9893 30.2133 87.4053 29.936C87.8213 29.6587 88.136 29.248 88.3493 28.704C88.5733 28.16 88.6853 27.4987 88.6853 26.72C88.6853 25.9307 88.5733 25.2693 88.3493 24.736C88.136 24.192 87.8213 23.7813 87.4053 23.504C86.9893 23.2267 86.488 23.088 85.9013 23.088ZM97.6327 21.44C98.4434 21.44 99.1367 21.5787 99.7127 21.856C100.289 22.1227 100.731 22.512 101.041 23.024C101.361 23.5253 101.521 24.1333 101.521 24.848C101.521 25.5627 101.361 26.176 101.041 26.688C100.731 27.1893 100.289 27.5787 99.7127 27.856C99.1367 28.1227 98.4434 28.256 97.6327 28.256H95.4087V32H93.2007V21.44H97.6327ZM97.2967 26.512C97.958 26.512 98.454 26.3733 98.7847 26.096C99.1154 25.808 99.2807 25.392 99.2807 24.848C99.2807 24.2933 99.1154 23.8773 98.7847 23.6C98.454 23.3227 97.958 23.184 97.2967 23.184H95.4087V26.512H97.2967ZM103.544 32V21.44H111.464V23.216H105.752V25.84H110.248V27.536H105.752V30.224H111.688V32H103.544ZM118.325 21.44C119.52 21.44 120.459 21.728 121.141 22.304C121.824 22.88 122.165 23.6533 122.165 24.624C122.165 25.6587 121.824 26.4533 121.141 27.008C120.459 27.552 119.525 27.824 118.341 27.824L118.117 27.952H115.845V32H113.669V21.44H118.325ZM118.069 26.272C118.688 26.272 119.147 26.1493 119.445 25.904C119.755 25.648 119.909 25.2587 119.909 24.736C119.909 24.2133 119.755 23.8293 119.445 23.584C119.147 23.328 118.688 23.2 118.069 23.2H115.845V26.272H118.069ZM119.365 26.736L122.789 32H120.309L117.477 27.376L119.365 26.736ZM132.709 21.44V23.216H129.173V32H126.965V23.216H123.413V21.44H132.709ZM142.806 21.44L139.062 28.048V32H136.854V28.048L133.11 21.44H135.462L137.158 24.608L137.958 26.256L138.774 24.608L140.47 21.44H142.806ZM153.133 21.44C153.943 21.44 154.637 21.5787 155.213 21.856C155.789 22.1227 156.231 22.512 156.541 23.024C156.861 23.5253 157.021 24.1333 157.021 24.848C157.021 25.5627 156.861 26.176 156.541 26.688C156.231 27.1893 155.789 27.5787 155.213 27.856C154.637 28.1227 153.943 28.256 153.133 28.256H150.909V32H148.701V21.44H153.133ZM152.797 26.512C153.458 26.512 153.954 26.3733 154.285 26.096C154.615 25.808 154.781 25.392 154.781 24.848C154.781 24.2933 154.615 23.8773 154.285 23.6C153.954 23.3227 153.458 23.184 152.797 23.184H150.909V26.512H152.797ZM163.7 21.44C164.895 21.44 165.834 21.728 166.516 22.304C167.199 22.88 167.54 23.6533 167.54 24.624C167.54 25.6587 167.199 26.4533 166.516 27.008C165.834 27.552 164.9 27.824 163.716 27.824L163.492 27.952H161.22V32H159.044V21.44H163.7ZM163.444 26.272C164.063 26.272 164.522 26.1493 164.82 25.904C165.13 25.648 165.284 25.2587 165.284 24.736C165.284 24.2133 165.13 23.8293 164.82 23.584C164.522 23.328 164.063 23.2 163.444 23.2H161.22V26.272H163.444ZM164.74 26.736L168.164 32H165.684L162.852 27.376L164.74 26.736ZM174.386 21.28C175.431 21.28 176.332 21.4987 177.09 21.936C177.847 22.3733 178.428 22.9973 178.834 23.808C179.25 24.6187 179.458 25.5893 179.458 26.72C179.458 27.8507 179.25 28.8213 178.834 29.632C178.428 30.4427 177.847 31.0667 177.09 31.504C176.332 31.9413 175.431 32.16 174.386 32.16C173.34 32.16 172.434 31.9413 171.666 31.504C170.908 31.0667 170.322 30.4427 169.906 29.632C169.5 28.8213 169.298 27.8507 169.298 26.72C169.298 25.5893 169.5 24.6187 169.906 23.808C170.322 22.9973 170.908 22.3733 171.666 21.936C172.434 21.4987 173.34 21.28 174.386 21.28ZM174.386 23.088C173.788 23.088 173.282 23.2267 172.866 23.504C172.45 23.7813 172.13 24.192 171.906 24.736C171.692 25.2693 171.586 25.9307 171.586 26.72C171.586 27.4987 171.692 28.16 171.906 28.704C172.13 29.248 172.45 29.6587 172.866 29.936C173.282 30.2133 173.788 30.352 174.386 30.352C174.972 30.352 175.474 30.2133 175.89 29.936C176.306 29.6587 176.62 29.248 176.834 28.704C177.058 28.16 177.17 27.4987 177.17 26.72C177.17 25.9307 177.058 25.2693 176.834 24.736C176.62 24.192 176.306 23.7813 175.89 23.504C175.474 23.2267 174.972 23.088 174.386 23.088ZM189.589 23.216H183.893V25.904H188.389V27.68H183.893V32H181.685V21.44H189.589V23.216ZM191.482 32V21.44H199.402V23.216H193.69V25.84H198.186V27.536H193.69V30.224H199.626V32H191.482ZM205.463 21.28C206.423 21.28 207.266 21.4453 207.991 21.776C208.716 22.1067 209.335 22.5973 209.847 23.248L208.615 24.672C208.178 24.1173 207.698 23.712 207.175 23.456C206.663 23.1893 206.066 23.056 205.383 23.056C204.935 23.056 204.562 23.1147 204.263 23.232C203.975 23.3493 203.762 23.504 203.623 23.696C203.495 23.888 203.431 24.1013 203.431 24.336C203.431 24.624 203.543 24.8693 203.767 25.072C203.991 25.264 204.375 25.424 204.919 25.552L206.887 26C207.932 26.2347 208.679 26.5867 209.127 27.056C209.586 27.5147 209.815 28.112 209.815 28.848C209.815 29.5413 209.634 30.1387 209.271 30.64C208.908 31.1307 208.402 31.5093 207.751 31.776C207.1 32.032 206.354 32.16 205.511 32.16C204.775 32.16 204.098 32.0747 203.479 31.904C202.871 31.7227 202.327 31.4773 201.847 31.168C201.367 30.8587 200.967 30.5013 200.647 30.096L201.895 28.608C202.14 28.9493 202.444 29.2533 202.807 29.52C203.17 29.7867 203.58 30 204.039 30.16C204.508 30.3093 204.999 30.384 205.511 30.384C205.948 30.384 206.316 30.336 206.615 30.24C206.924 30.1333 207.154 29.9893 207.303 29.808C207.463 29.616 207.543 29.3867 207.543 29.12C207.543 28.8427 207.447 28.608 207.255 28.416C207.074 28.2133 206.732 28.0587 206.231 27.952L204.087 27.472C203.468 27.3227 202.935 27.1307 202.487 26.896C202.05 26.6507 201.714 26.3413 201.479 25.968C201.255 25.584 201.143 25.1307 201.143 24.608C201.143 23.9787 201.314 23.4133 201.655 22.912C201.996 22.4107 202.487 22.016 203.127 21.728C203.778 21.4293 204.556 21.28 205.463 21.28ZM215.76 21.28C216.72 21.28 217.562 21.4453 218.288 21.776C219.013 22.1067 219.632 22.5973 220.144 23.248L218.912 24.672C218.474 24.1173 217.994 23.712 217.472 23.456C216.96 23.1893 216.362 23.056 215.68 23.056C215.232 23.056 214.858 23.1147 214.56 23.232C214.272 23.3493 214.058 23.504 213.92 23.696C213.792 23.888 213.728 24.1013 213.728 24.336C213.728 24.624 213.84 24.8693 214.064 25.072C214.288 25.264 214.672 25.424 215.216 25.552L217.184 26C218.229 26.2347 218.976 26.5867 219.424 27.056C219.882 27.5147 220.112 28.112 220.112 28.848C220.112 29.5413 219.93 30.1387 219.568 30.64C219.205 31.1307 218.698 31.5093 218.048 31.776C217.397 32.032 216.65 32.16 215.808 32.16C215.072 32.16 214.394 32.0747 213.776 31.904C213.168 31.7227 212.624 31.4773 212.144 31.168C211.664 30.8587 211.264 30.5013 210.944 30.096L212.192 28.608C212.437 28.9493 212.741 29.2533 213.104 29.52C213.466 29.7867 213.877 30 214.336 30.16C214.805 30.3093 215.296 30.384 215.808 30.384C216.245 30.384 216.613 30.336 216.912 30.24C217.221 30.1333 217.45 29.9893 217.6 29.808C217.76 29.616 217.84 29.3867 217.84 29.12C217.84 28.8427 217.744 28.608 217.552 28.416C217.37 28.2133 217.029 28.0587 216.528 27.952L214.384 27.472C213.765 27.3227 213.232 27.1307 212.784 26.896C212.346 26.6507 212.01 26.3413 211.776 25.968C211.552 25.584 211.44 25.1307 211.44 24.608C211.44 23.9787 211.61 23.4133 211.952 22.912C212.293 22.4107 212.784 22.016 213.424 21.728C214.074 21.4293 214.853 21.28 215.76 21.28ZM224.409 21.44V32H222.201V21.44H224.409ZM231.714 21.28C232.759 21.28 233.66 21.4987 234.418 21.936C235.175 22.3733 235.756 22.9973 236.162 23.808C236.578 24.6187 236.786 25.5893 236.786 26.72C236.786 27.8507 236.578 28.8213 236.162 29.632C235.756 30.4427 235.175 31.0667 234.418 31.504C233.66 31.9413 232.759 32.16 231.714 32.16C230.668 32.16 229.762 31.9413 228.994 31.504C228.236 31.0667 227.65 30.4427 227.234 29.632C226.828 28.8213 226.626 27.8507 226.626 26.72C226.626 25.5893 226.828 24.6187 227.234 23.808C227.65 22.9973 228.236 22.3733 228.994 21.936C229.762 21.4987 230.668 21.28 231.714 21.28ZM231.714 23.088C231.116 23.088 230.61 23.2267 230.194 23.504C229.778 23.7813 229.458 24.192 229.234 24.736C229.02 25.2693 228.914 25.9307 228.914 26.72C228.914 27.4987 229.02 28.16 229.234 28.704C229.458 29.248 229.778 29.6587 230.194 29.936C230.61 30.2133 231.116 30.352 231.714 30.352C232.3 30.352 232.802 30.2133 233.218 29.936C233.634 29.6587 233.948 29.248 234.162 28.704C234.386 28.16 234.498 27.4987 234.498 26.72C234.498 25.9307 234.386 25.2693 234.162 24.736C233.948 24.192 233.634 23.7813 233.218 23.504C232.802 23.2267 232.3 23.088 231.714 23.088ZM248.085 21.44V32H245.557L241.861 25.792L240.949 24.064H240.933L240.997 25.888V32H239.013V21.44H241.525L245.221 27.632L246.133 29.376H246.165L246.101 27.552V21.44H248.085ZM260.009 32H257.721L256.841 29.424H252.793L251.913 32H249.657L253.513 21.44H256.153L260.009 32ZM253.289 27.792H256.345L254.809 23.184L253.289 27.792ZM263.784 30.224H269.352V32H261.576V21.44H263.784V30.224ZM275.041 21.28C276.001 21.28 276.844 21.4453 277.569 21.776C278.294 22.1067 278.913 22.5973 279.425 23.248L278.193 24.672C277.756 24.1173 277.276 23.712 276.753 23.456C276.241 23.1893 275.644 23.056 274.961 23.056C274.513 23.056 274.14 23.1147 273.841 23.232C273.553 23.3493 273.34 23.504 273.201 23.696C273.073 23.888 273.009 24.1013 273.009 24.336C273.009 24.624 273.121 24.8693 273.345 25.072C273.569 25.264 273.953 25.424 274.497 25.552L276.465 26C277.51 26.2347 278.257 26.5867 278.705 27.056C279.164 27.5147 279.393 28.112 279.393 28.848C279.393 29.5413 279.212 30.1387 278.849 30.64C278.486 31.1307 277.98 31.5093 277.329 31.776C276.678 32.032 275.932 32.16 275.089 32.16C274.353 32.16 273.676 32.0747 273.057 31.904C272.449 31.7227 271.905 31.4773 271.425 31.168C270.945 30.8587 270.545 30.5013 270.225 30.096L271.473 28.608C271.718 28.9493 272.022 29.2533 272.385 29.52C272.748 29.7867 273.158 30 273.617 30.16C274.086 30.3093 274.577 30.384 275.089 30.384C275.526 30.384 275.894 30.336 276.193 30.24C276.502 30.1333 276.732 29.9893 276.881 29.808C277.041 29.616 277.121 29.3867 277.121 29.12C277.121 28.8427 277.025 28.608 276.833 28.416C276.652 28.2133 276.31 28.0587 275.809 27.952L273.665 27.472C273.046 27.3227 272.513 27.1307 272.065 26.896C271.628 26.6507 271.292 26.3413 271.057 25.968C270.833 25.584 270.721 25.1307 270.721 24.608C270.721 23.9787 270.892 23.4133 271.233 22.912C271.574 22.4107 272.065 22.016 272.705 21.728C273.356 21.4293 274.134 21.28 275.041 21.28Z" fill="#212738"/>
<path d="M14.8129 23.3336C14.813 22.2592 14.5126 21.2098 13.9512 20.323C13.3897 19.4361 12.5934 18.753 11.6665 18.3633C10.7396 17.9735 9.72524 17.8953 8.75645 18.1387C7.78761 18.3822 6.90948 18.936 6.23701 19.7277H0V33.9463H13.1687V27.3012C13.6855 26.8019 14.0991 26.1904 14.3825 25.5068C14.6658 24.8231 14.8125 24.0826 14.8129 23.3336ZM12.2791 23.3336C12.2801 23.8484 12.1397 24.352 11.8756 24.7806C11.6115 25.2092 11.2357 25.5435 10.7956 25.7413C10.3555 25.939 9.87102 25.9914 9.40339 25.8915C8.93582 25.7918 8.50612 25.5444 8.16873 25.1807C7.83134 24.8171 7.60145 24.3535 7.5081 23.8486C7.41474 23.3437 7.46217 22.8203 7.64433 22.3446C7.8265 21.8688 8.13525 21.4621 8.53146 21.176C8.92772 20.8898 9.39365 20.7371 9.87027 20.7371C10.5083 20.7371 11.1202 21.0105 11.5718 21.4973C12.0234 21.9841 12.2778 22.6445 12.2791 23.3336ZM10.6349 31.2094H2.53379V22.4645H5.0026C4.95492 22.7514 4.92983 23.0422 4.92763 23.3336C4.92898 24.7491 5.45013 26.1062 6.37679 27.1071C7.3034 28.108 8.5598 28.6709 9.87027 28.6723C10.1265 28.6709 10.3822 28.6474 10.6349 28.6022V31.2094Z" fill="#212738"/>
</svg>
