<svg width="24" height="23" viewBox="0 0 24 23" fill="none" xmlns="http://www.w3.org/2000/svg">
<path d="M24 7.51552C24.0001 6.00161 23.5134 4.52297 22.6038 3.27327C21.6942 2.02358 20.4039 1.0611 18.9021 0.511919C17.4003 -0.0372731 15.7569 -0.147566 14.1873 0.195476C12.6176 0.538519 11.1948 1.31891 10.1053 2.43442H0V22.4698H21.336V13.1062C22.1734 12.4027 22.8436 11.5411 23.3026 10.5777C23.7616 9.61436 23.9993 8.57099 24 7.51552ZM19.8947 7.51552C19.8964 8.24094 19.6688 8.95055 19.241 9.5545C18.813 10.1584 18.2041 10.6295 17.4911 10.9081C16.7781 11.1868 15.9931 11.2605 15.2355 11.1199C14.4779 10.9793 13.7817 10.6307 13.2351 10.1183C12.6884 9.60584 12.3159 8.9526 12.1647 8.24117C12.0134 7.52982 12.0903 6.79222 12.3854 6.12187C12.6806 5.45148 13.1808 4.87844 13.8227 4.47524C14.4648 4.07205 15.2197 3.85683 15.9919 3.85683C17.0256 3.85683 18.0171 4.24205 18.7487 4.92797C19.4805 5.61389 19.8926 6.54448 19.8947 7.51552ZM17.2308 18.6133H4.10527V6.29088H8.10525C8.028 6.69517 7.98736 7.10485 7.98379 7.51552C7.98598 9.51008 8.83035 11.4223 10.3317 12.8327C11.833 14.243 13.8687 15.0363 15.9919 15.0383C16.407 15.0362 16.8213 15.0031 17.2308 14.9394V18.6133Z" fill="#212738"/>
</svg>
